# xmcd
#
# Track frame offsets:
#	182
#	16802
#	32400
#	43787
#	58722
#	75805
#	93845
#	108380
#	125027
#	141157
#	156570
#	174470
#	189480
#	207015
#	222722
#	239875
#	255860
#	272285
#	284457
#	298917
#
# Disc length: 4188 seconds
#
# Revision: 1
# Processed by: cddbd v1.5.2PL0 Copyright (c) Steve Scherf et al.
# Submitted via: audiograbber 1.83.01
#
DISCID=23105a14
DTITLE=Various Artist - Power Vision - Amerikanische Nacht
DYEAR=1996
DGENRE=Country
TTITLE0=Diamond Rio - It's All In Your Head
TTITLE1=Brooks and Dunn - My Maria (Latin Mix)
TTITLE2=BR5-49 - Cherokee Boogie
TTITLE3=Michelle Wright - Nobody's Girl
TTITLE4=Ray Vega - I Can Dream
TTITLE5=Mindy McCready - Maybe He'll Notice Her Now (Featuring Lonestar's Richi
TTITLE5=e McDonald)
TTITLE6=The Thompson Brother Band - Solitary Man
TTITLE7=The Bellamy Brothers - Medley (Neon Cowboy and Let You Love Flow)
TTITLE8=Prairie Oyster - Unbelievable Love
TTITLE9=Ty England - Irresistible You
TTITLE10=Lorrie Morgan - Greater Need
TTITLE11=John Berry - You And Only You
TTITLE12=Michelle Wright - We've Tried Everything Else
TTITLE13=Jill Morris - Aufwiedersehn, Goodbye (Duet With T. Graham Brown)
TTITLE14=The Bellamy Brothers - I Hit The Jackpott
TTITLE15=Martina McBride - Phones Are Ringin' All Over Town
TTITLE16=Jill Morris - Hollywood Endings
TTITLE17=Ray Vega - That Love
TTITLE18=Mindy McCready - Guys Do It All The Time
TTITLE19=Charlie Major - (I Do It) For The Money
EXTD=
EXTT0=
EXTT1=
EXTT2=
EXTT3=
EXTT4=
EXTT5=
EXTT6=
EXTT7=
EXTT8=
EXTT9=
EXTT10=
EXTT11=
EXTT12=
EXTT13=
EXTT14=
EXTT15=
EXTT16=
EXTT17=
EXTT18=
EXTT19=
PLAYORDER=
